<svg xmlns="http://www.w3.org/2000/svg" width="1755" height="2048" viewBox="0 0 1755 2048" version="1.1"><path d="M 847 440.051 C 740.881 446.215, 640.313 479.941, 552 538.983 C 448.778 607.991, 365.937 714.396, 326.207 829 C 308.040 881.406, 298.419 926.503, 293.886 980.500 C 292.326 999.089, 292.336 1047.736, 293.905 1066.500 C 303.331 1179.278, 340.009 1278.437, 405.427 1368 C 460.906 1443.955, 535.786 1506.550, 621.500 1548.622 C 687.520 1581.027, 752.075 1599.074, 829 1606.631 C 853.577 1609.045, 905.053 1609.060, 929 1606.659 C 975.608 1601.986, 1010.221 1595.475, 1047.289 1584.409 C 1177.479 1545.539, 1288.787 1464.726, 1366.020 1353 C 1379.609 1333.343, 1383.328 1326.885, 1381.837 1325.536 C 1380.178 1324.036, 1132.527 1177, 1131.659 1177 C 1131.313 1177, 1128.862 1180.275, 1126.212 1184.277 C 1110.401 1208.152, 1087.517 1233.225, 1065 1251.345 C 1043.005 1269.045, 1008.820 1288.346, 981.978 1298.222 C 906.423 1326.018, 822.866 1321.782, 751.500 1286.538 C 696.224 1259.240, 653.194 1218.774, 624.120 1166.750 C 604.222 1131.146, 593.161 1096.804, 588.449 1056 C 586.362 1037.931, 586.906 998.389, 589.467 982 C 599.523 917.641, 628.526 860.942, 674.137 816.472 C 697.314 793.874, 718.919 778.263, 746 764.546 C 770.393 752.190, 785.602 746.573, 813.500 739.620 C 835.563 734.120, 850.202 732.561, 880 732.538 C 909.455 732.514, 915.625 733.082, 940.298 738.089 C 984.551 747.070, 1028.615 767.826, 1064.882 796.774 C 1086.277 813.851, 1113.790 844.196, 1127.041 865.330 C 1129.755 869.658, 1131.777 871.916, 1132.643 871.584 C 1135.468 870.499, 1383 721.687, 1383 721.072 C 1383 719.714, 1362.917 689.826, 1353.365 676.969 C 1313.113 622.792, 1265.060 577.185, 1207.997 539.003 C 1124.393 483.061, 1030.164 450.131, 927.500 440.980 C 910.810 439.492, 865.600 438.970, 847 440.051 M 1316 841.500 L 1316 878 1279.500 878 L 1243 878 1243 914.500 L 1243 951 1279.500 951 L 1316 951 1316 1024 L 1316 1097 1279.500 1097 L 1243 1097 1243 1133.500 L 1243 1170 1279.500 1170 L 1316 1170 1316 1206.500 L 1316 1243 1352.500 1243 L 1389 1243 1389 1206.494 L 1389 1169.987 1462.250 1170.244 L 1535.500 1170.500 1535.762 1206.762 L 1536.025 1243.025 1572.262 1242.762 L 1608.500 1242.500 1608.762 1206.250 L 1609.025 1170 1645.512 1170 L 1682 1170 1682 1133.500 L 1682 1097 1645.500 1097 L 1609 1097 1609 1024 L 1609 951 1645.500 951 L 1682 951 1682 914.500 L 1682 878 1645.512 878 L 1609.025 878 1608.762 841.750 L 1608.500 805.500 1572.262 805.238 L 1536.025 804.975 1535.762 841.238 L 1535.500 877.500 1462.500 877.500 L 1389.500 877.500 1389.238 841.250 L 1388.975 805 1352.488 805 L 1316 805 1316 841.500 M 1389 1024 L 1389 1097.013 1462.250 1096.756 L 1535.500 1096.500 1535.500 1024 L 1535.500 951.500 1462.250 951.244 L 1389 950.987 1389 1024" stroke="none" fill="#fbfbfb" fill-rule="evenodd"/><path d="M 854.106 1.593 C 841.507 3.118, 827.593 6.527, 817.862 10.473 C 809.691 13.786, 803.613 17.285, 744 52.991 C 716.775 69.298, 684.375 88.653, 672 96.001 C 659.625 103.350, 646.125 111.457, 642 114.018 C 637.875 116.579, 624.375 124.671, 612 132 C 599.625 139.329, 584.550 148.336, 578.500 152.015 C 563.335 161.237, 543.787 172.910, 529.500 181.276 C 522.900 185.140, 513 191.083, 507.500 194.482 C 502 197.880, 481.750 210.022, 462.500 221.463 C 443.250 232.904, 421.425 245.953, 414 250.460 C 406.575 254.968, 376.875 272.759, 348 289.997 C 304.271 316.103, 275.331 333.430, 236.500 356.757 C 233.750 358.408, 223.175 364.728, 213 370.799 C 172.840 394.762, 144.265 411.855, 139.500 414.765 C 136.750 416.445, 120.775 426.012, 104 436.026 C 87.225 446.041, 70.575 456.294, 67 458.813 C 54.819 467.393, 37.055 487.151, 26.743 503.590 C 17.750 517.925, 6.772 543.412, 3.607 557.302 C -0.154 573.810, -0.124 569.705, 0.210 1029.500 L 0.536 1477.500 2.792 1487.266 C 10.071 1518.780, 29.361 1553.429, 52.475 1576.512 C 62.850 1586.873, 69.186 1591.201, 107 1613.762 C 122.125 1622.785, 136.750 1631.545, 139.500 1633.229 C 144.231 1636.124, 171.737 1652.580, 213 1677.201 C 223.175 1683.272, 233.750 1689.592, 236.500 1691.243 C 274.758 1714.226, 303.906 1731.672, 345.500 1756.485 C 373 1772.890, 402.700 1790.671, 411.500 1795.997 C 420.300 1801.323, 443.250 1815.057, 462.500 1826.516 C 481.750 1837.975, 502 1850.129, 507.500 1853.524 C 513 1856.920, 522.900 1862.860, 529.500 1866.724 C 543.787 1875.090, 563.335 1886.763, 578.500 1895.985 C 584.550 1899.664, 599.625 1908.671, 612 1916 C 624.375 1923.329, 637.875 1931.436, 642 1934.015 C 646.125 1936.594, 656.025 1942.525, 664 1947.196 C 671.975 1951.867, 681.875 1957.747, 686 1960.262 C 692.663 1964.326, 784.340 2019.178, 801.025 2029.084 C 817.751 2039.014, 835.231 2044.283, 859.741 2046.782 C 874.846 2048.322, 877.226 2048.322, 893.741 2046.788 C 919.796 2044.367, 936.479 2039.464, 953.975 2029.088 C 975.835 2016.123, 1030.591 1983.415, 1042 1976.507 C 1049.425 1972.011, 1079.125 1954.232, 1108 1936.999 C 1151.904 1910.795, 1196.486 1884.107, 1219.500 1870.250 C 1222.250 1868.595, 1233.050 1862.161, 1243.500 1855.953 C 1253.950 1849.746, 1267.450 1841.637, 1273.500 1837.935 C 1279.550 1834.232, 1289.450 1828.309, 1295.500 1824.772 C 1301.550 1821.235, 1311.225 1815.480, 1317 1811.982 C 1341.557 1797.110, 1355.665 1788.659, 1374.500 1777.537 C 1385.500 1771.042, 1400.125 1762.264, 1407 1758.031 C 1413.875 1753.797, 1437.500 1739.616, 1459.500 1726.517 C 1481.500 1713.419, 1503.325 1700.331, 1508 1697.435 C 1512.675 1694.538, 1520.325 1689.954, 1525 1687.248 C 1529.675 1684.541, 1539.125 1678.923, 1546 1674.763 C 1565.910 1662.714, 1652.511 1610.942, 1663.500 1604.519 C 1681.959 1593.729, 1694.338 1584.816, 1703.028 1576.058 C 1716.512 1562.468, 1726.867 1547.833, 1736.323 1529 C 1745.902 1509.923, 1750.373 1497.251, 1752.631 1482.782 C 1753.514 1477.127, 1754.633 1471.719, 1755.118 1470.764 C 1756.369 1468.302, 1756.251 574.065, 1755 576 C 1754.267 577.134, 1754.027 576.683, 1754.015 574.157 C 1753.988 568.136, 1749.950 550.780, 1746.312 541.043 C 1735.373 511.769, 1716.626 483.313, 1697.040 466.256 C 1686.997 457.510, 1687.034 457.533, 1592.500 401.054 C 1554.550 378.380, 1521.250 358.459, 1518.500 356.783 C 1510.192 351.721, 1464.930 324.654, 1441.500 310.736 C 1429.400 303.549, 1413.875 294.204, 1407 289.970 C 1400.125 285.737, 1377.625 272.232, 1357 259.960 C 1336.375 247.687, 1314.550 234.647, 1308.500 230.980 C 1302.450 227.313, 1288.500 218.982, 1277.500 212.466 C 1266.500 205.950, 1251.425 196.957, 1244 192.482 C 1231.285 184.818, 1121.507 119.093, 1011 52.983 C 948.362 15.510, 947.246 14.872, 936.797 10.573 C 914.536 1.414, 883.467 -1.960, 854.106 1.593 M 847 440.051 C 740.881 446.215, 640.313 479.941, 552 538.983 C 448.778 607.991, 365.937 714.396, 326.207 829 C 308.040 881.406, 298.419 926.503, 293.886 980.500 C 292.326 999.089, 292.336 1047.736, 293.905 1066.500 C 303.331 1179.278, 340.009 1278.437, 405.427 1368 C 460.906 1443.955, 535.786 1506.550, 621.500 1548.622 C 687.520 1581.027, 752.075 1599.074, 829 1606.631 C 853.577 1609.045, 905.053 1609.060, 929 1606.659 C 975.608 1601.986, 1010.221 1595.475, 1047.289 1584.409 C 1177.479 1545.539, 1288.787 1464.726, 1366.020 1353 C 1379.609 1333.343, 1383.328 1326.885, 1381.837 1325.536 C 1380.178 1324.036, 1132.527 1177, 1131.659 1177 C 1131.313 1177, 1128.862 1180.275, 1126.212 1184.277 C 1110.401 1208.152, 1087.517 1233.225, 1065 1251.345 C 1043.005 1269.045, 1008.820 1288.346, 981.978 1298.222 C 906.423 1326.018, 822.866 1321.782, 751.500 1286.538 C 696.224 1259.240, 653.194 1218.774, 624.120 1166.750 C 604.222 1131.146, 593.161 1096.804, 588.449 1056 C 586.362 1037.931, 586.906 998.389, 589.467 982 C 599.523 917.641, 628.526 860.942, 674.137 816.472 C 697.314 793.874, 718.919 778.263, 746 764.546 C 770.393 752.190, 785.602 746.573, 813.500 739.620 C 835.563 734.120, 850.202 732.561, 880 732.538 C 909.455 732.514, 915.625 733.082, 940.298 738.089 C 984.551 747.070, 1028.615 767.826, 1064.882 796.774 C 1086.277 813.851, 1113.790 844.196, 1127.041 865.330 C 1129.755 869.658, 1131.777 871.916, 1132.643 871.584 C 1135.468 870.499, 1383 721.687, 1383 721.072 C 1383 719.714, 1362.917 689.826, 1353.365 676.969 C 1313.113 622.792, 1265.060 577.185, 1207.997 539.003 C 1124.393 483.061, 1030.164 450.131, 927.500 440.980 C 910.810 439.492, 865.600 438.970, 847 440.051 M 0.496 1023.500 C 0.496 1269.900, 0.610 1370.551, 0.750 1247.168 C 0.890 1123.786, 0.890 922.186, 0.750 799.168 C 0.610 676.151, 0.496 777.100, 0.496 1023.500 M 1316 841.500 L 1316 878 1279.500 878 L 1243 878 1243 914.500 L 1243 951 1279.500 951 L 1316 951 1316 1024 L 1316 1097 1279.500 1097 L 1243 1097 1243 1133.500 L 1243 1170 1279.500 1170 L 1316 1170 1316 1206.500 L 1316 1243 1352.500 1243 L 1389 1243 1389 1206.494 L 1389 1169.987 1462.250 1170.244 L 1535.500 1170.500 1535.762 1206.762 L 1536.025 1243.025 1572.262 1242.762 L 1608.500 1242.500 1608.762 1206.250 L 1609.025 1170 1645.512 1170 L 1682 1170 1682 1133.500 L 1682 1097 1645.500 1097 L 1609 1097 1609 1024 L 1609 951 1645.500 951 L 1682 951 1682 914.500 L 1682 878 1645.512 878 L 1609.025 878 1608.762 841.750 L 1608.500 805.500 1572.262 805.238 L 1536.025 804.975 1535.762 841.238 L 1535.500 877.500 1462.500 877.500 L 1389.500 877.500 1389.238 841.250 L 1388.975 805 1352.488 805 L 1316 805 1316 841.500 M 1389 1024 L 1389 1097.013 1462.250 1096.756 L 1535.500 1096.500 1535.500 1024 L 1535.500 951.500 1462.250 951.244 L 1389 950.987 1389 1024" stroke="none" fill="#853e89" fill-rule="evenodd"/></svg>