<svg xmlns="http://www.w3.org/2000/svg" width="800" height="600" viewBox="0 0 800 600" version="1.1"><path d="M 337.512 91.285 C 337.233 92.503, 328.693 146.375, 318.535 211 C 308.378 275.625, 299.778 329.924, 299.425 331.664 C 298.612 335.677, 294.688 333.187, 355.897 367.500 C 395.299 389.589, 405.820 395.083, 407.897 394.656 C 411.759 393.863, 516.293 336.348, 517.740 334.220 C 518.767 332.711, 516.315 316.903, 503.503 242.448 C 494.991 192.977, 487.787 151.488, 487.494 150.250 C 487.201 149.012, 486.403 148, 485.720 148 C 485.037 148, 476.613 155.875, 467 165.500 C 457.387 175.125, 449.249 183, 448.916 183 C 448.583 183, 442.976 176.137, 436.456 167.750 C 414.787 139.875, 409.923 134, 408.518 134 C 407.752 134, 403.907 139.873, 399.972 147.050 L 392.819 160.101 366.660 125.105 C 352.272 105.857, 339.942 89.875, 339.260 89.590 C 338.553 89.294, 337.802 90.022, 337.512 91.285 M 394 481.500 L 394 520 399.481 520 C 404.478 520, 405.017 519.781, 405.583 517.527 L 406.203 515.053 409.774 517.777 C 412.900 520.161, 414.244 520.500, 420.579 520.500 C 427.169 520.500, 428.157 520.224, 431.657 517.411 C 439.522 511.088, 443.047 499.314, 440.970 486.310 C 439.263 475.624, 435.302 469.695, 427.768 466.548 C 422.440 464.321, 417.062 464.633, 411.419 467.496 C 408.714 468.869, 406.387 469.994, 406.250 469.996 C 406.113 469.998, 406 463.925, 406 456.500 L 406 443 400 443 L 394 443 394 481.500 M 277.557 448.223 C 275.513 451.140, 275.591 453.274, 277.844 456.056 C 281.562 460.647, 290 457.832, 290 452 C 290 448.379, 287.116 446, 282.728 446 C 280.126 446, 278.677 446.623, 277.557 448.223 M 221.685 447.648 C 221.308 448.025, 221 464.458, 221 484.167 L 221 520 227.500 520 L 234 520 234 504.500 L 234 489 248.500 489 L 263 489 263 484 L 263 479 248.500 479 L 234 479 234 468.524 L 234 458.048 250.750 457.774 L 267.500 457.500 267.500 452.500 L 267.500 447.500 244.935 447.232 C 232.524 447.084, 222.062 447.272, 221.685 447.648 M 321.500 466.141 C 320.400 466.764, 318.488 468.190, 317.250 469.311 L 315 471.349 315 468.674 C 315 466.072, 314.838 466, 309 466 L 303 466 303 493 L 303 520 309 520 L 315 520 315 501.934 C 315 491.456, 315.432 483.060, 316.030 481.945 C 317.576 479.055, 322.343 477, 327.500 477 L 332.100 477 331.800 471.250 L 331.500 465.500 327.500 465.255 C 325.300 465.120, 322.600 465.519, 321.500 466.141 M 353.910 466.371 C 344.284 469.812, 338.344 478.511, 337.326 490.656 C 336.278 503.152, 341.098 513.367, 350.347 518.252 C 356.430 521.465, 368.655 521.408, 375.302 518.136 C 377.943 516.835, 380.828 514.666, 381.713 513.316 C 383.259 510.956, 383.199 510.738, 380.190 507.728 L 377.058 504.597 374.779 506.732 C 367.720 513.345, 355.622 511.971, 351.549 504.094 C 350.697 502.447, 350 500.177, 350 499.050 C 350 497.061, 350.524 497, 367.638 497 L 385.276 497 384.594 490.250 C 383.566 480.084, 381.987 475.947, 377.371 471.325 C 371.332 465.276, 362.305 463.370, 353.910 466.371 M 463.639 466.992 C 456.412 469.815, 452 474.727, 452 479.950 C 452 481.789, 452.618 482, 458 482 C 462.316 482, 464 481.628, 464 480.674 C 464 477.800, 468.504 475, 473.126 475 C 479.054 475, 482 477.623, 482 482.900 L 482 486.723 473.232 487.223 C 460.098 487.971, 453.350 492.086, 451.051 500.750 C 449.446 506.797, 451.048 511.907, 455.932 516.319 C 462.072 521.867, 472.980 522.609, 479.335 517.910 C 481.695 516.166, 482.399 516.021, 483.103 517.133 C 483.580 517.885, 483.976 518.837, 483.985 519.250 C 483.993 519.663, 486.973 520, 490.607 520 C 496.539 520, 497.132 519.821, 496.411 518.250 C 495.969 517.288, 495.349 507.725, 495.033 497 C 494.569 481.271, 494.126 476.887, 492.744 474.329 C 488.243 466, 474.834 462.620, 463.639 466.992 M 520.648 465.967 C 510.033 469.371, 504.933 479.168, 509.339 487.689 C 511.534 491.934, 515.868 494.380, 526.469 497.358 C 535.580 499.918, 538 501.634, 538 505.536 C 538 513.306, 521.606 513.715, 518.701 506.017 C 517.614 503.140, 517.293 503, 511.781 503 C 506.451 503, 506 503.176, 506.004 505.250 C 506.013 510.524, 512.918 517.604, 520.391 520 C 526.125 521.839, 536.778 520.815, 541.908 517.932 C 548.002 514.507, 550.347 510.198, 549.788 503.455 C 549.094 495.083, 545.385 492.118, 530.535 488.063 C 526.154 486.867, 521.992 485.408, 521.285 484.822 C 519.350 483.216, 519.741 478.544, 521.979 476.519 C 526.079 472.809, 537 475.357, 537 480.023 C 537 481.793, 537.692 482, 543.625 482 L 550.250 482 549.633 478.916 C 548.056 471.028, 540.628 465.906, 530 465.376 C 526.425 465.198, 522.217 465.464, 520.648 465.967 M 575.910 466.371 C 566.284 469.812, 560.344 478.511, 559.326 490.656 C 558.278 503.152, 563.098 513.367, 572.347 518.252 C 578.430 521.465, 590.655 521.408, 597.302 518.136 C 599.943 516.835, 602.828 514.666, 603.713 513.316 C 605.259 510.956, 605.199 510.738, 602.190 507.728 L 599.058 504.597 596.779 506.732 C 589.720 513.345, 577.622 511.971, 573.549 504.094 C 572.697 502.447, 572 500.177, 572 499.050 C 572 497.061, 572.524 497, 589.638 497 L 607.276 497 606.594 490.250 C 605.566 480.084, 603.987 475.947, 599.371 471.325 C 593.332 465.276, 584.305 463.370, 575.910 466.371 M 277 493 L 277 520 283 520 L 289 520 289 493 L 289 466 283 466 L 277 466 277 493 M 356.269 476.212 C 354.158 477.231, 350 484.263, 350 486.816 C 350 487.656, 353.192 488, 361 488 L 372 488 372 485.547 C 372 477.581, 363.673 472.639, 356.269 476.212 M 412.378 476.389 C 406.895 478.859, 406 481.219, 406 493.207 C 406 503.541, 406.109 504.090, 408.750 507.019 C 414.303 513.179, 423.388 511.961, 426.962 504.579 C 429.394 499.554, 429.760 487.732, 427.638 482.718 C 424.894 476.235, 418.556 473.606, 412.378 476.389 M 578.269 476.212 C 576.158 477.231, 572 484.263, 572 486.816 C 572 487.656, 575.192 488, 583 488 L 594 488 594 485.547 C 594 477.581, 585.673 472.639, 578.269 476.212 M 469 495.706 C 462.974 497.909, 461.112 504.878, 465.458 508.960 C 467.517 510.895, 468.663 511.185, 472.520 510.751 C 479.339 509.982, 482 507.055, 482 500.326 L 482 495 476.250 495.079 C 473.087 495.122, 469.825 495.405, 469 495.706" stroke="none" fill="#d8a212" fill-rule="evenodd"/><path d="M 0 300.001 L 0 600.002 400.250 599.751 L 800.500 599.500 800.752 299.750 L 801.003 0 400.502 0 L 0 0 0 300.001 M 0.493 300.500 C 0.493 465.500, 0.609 532.851, 0.750 450.169 C 0.891 367.487, 0.891 232.487, 0.750 150.169 C 0.609 67.851, 0.493 135.500, 0.493 300.500 M 337.512 91.285 C 337.233 92.503, 328.693 146.375, 318.535 211 C 308.378 275.625, 299.778 329.924, 299.425 331.664 C 298.612 335.677, 294.688 333.187, 355.897 367.500 C 395.299 389.589, 405.820 395.083, 407.897 394.656 C 411.759 393.863, 516.293 336.348, 517.740 334.220 C 518.767 332.711, 516.315 316.903, 503.503 242.448 C 494.991 192.977, 487.787 151.488, 487.494 150.250 C 487.201 149.012, 486.403 148, 485.720 148 C 485.037 148, 476.613 155.875, 467 165.500 C 457.387 175.125, 449.249 183, 448.916 183 C 448.583 183, 442.976 176.137, 436.456 167.750 C 414.787 139.875, 409.923 134, 408.518 134 C 407.752 134, 403.907 139.873, 399.972 147.050 L 392.819 160.101 366.660 125.105 C 352.272 105.857, 339.942 89.875, 339.260 89.590 C 338.553 89.294, 337.802 90.022, 337.512 91.285 M 394 481.500 L 394 520 399.481 520 C 404.478 520, 405.017 519.781, 405.583 517.527 L 406.203 515.053 409.774 517.777 C 412.900 520.161, 414.244 520.500, 420.579 520.500 C 427.169 520.500, 428.157 520.224, 431.657 517.411 C 439.522 511.088, 443.047 499.314, 440.970 486.310 C 439.263 475.624, 435.302 469.695, 427.768 466.548 C 422.440 464.321, 417.062 464.633, 411.419 467.496 C 408.714 468.869, 406.387 469.994, 406.250 469.996 C 406.113 469.998, 406 463.925, 406 456.500 L 406 443 400 443 L 394 443 394 481.500 M 277.557 448.223 C 275.513 451.140, 275.591 453.274, 277.844 456.056 C 281.562 460.647, 290 457.832, 290 452 C 290 448.379, 287.116 446, 282.728 446 C 280.126 446, 278.677 446.623, 277.557 448.223 M 221.685 447.648 C 221.308 448.025, 221 464.458, 221 484.167 L 221 520 227.500 520 L 234 520 234 504.500 L 234 489 248.500 489 L 263 489 263 484 L 263 479 248.500 479 L 234 479 234 468.524 L 234 458.048 250.750 457.774 L 267.500 457.500 267.500 452.500 L 267.500 447.500 244.935 447.232 C 232.524 447.084, 222.062 447.272, 221.685 447.648 M 321.500 466.141 C 320.400 466.764, 318.488 468.190, 317.250 469.311 L 315 471.349 315 468.674 C 315 466.072, 314.838 466, 309 466 L 303 466 303 493 L 303 520 309 520 L 315 520 315 501.934 C 315 491.456, 315.432 483.060, 316.030 481.945 C 317.576 479.055, 322.343 477, 327.500 477 L 332.100 477 331.800 471.250 L 331.500 465.500 327.500 465.255 C 325.300 465.120, 322.600 465.519, 321.500 466.141 M 353.910 466.371 C 344.284 469.812, 338.344 478.511, 337.326 490.656 C 336.278 503.152, 341.098 513.367, 350.347 518.252 C 356.430 521.465, 368.655 521.408, 375.302 518.136 C 377.943 516.835, 380.828 514.666, 381.713 513.316 C 383.259 510.956, 383.199 510.738, 380.190 507.728 L 377.058 504.597 374.779 506.732 C 367.720 513.345, 355.622 511.971, 351.549 504.094 C 350.697 502.447, 350 500.177, 350 499.050 C 350 497.061, 350.524 497, 367.638 497 L 385.276 497 384.594 490.250 C 383.566 480.084, 381.987 475.947, 377.371 471.325 C 371.332 465.276, 362.305 463.370, 353.910 466.371 M 463.639 466.992 C 456.412 469.815, 452 474.727, 452 479.950 C 452 481.789, 452.618 482, 458 482 C 462.316 482, 464 481.628, 464 480.674 C 464 477.800, 468.504 475, 473.126 475 C 479.054 475, 482 477.623, 482 482.900 L 482 486.723 473.232 487.223 C 460.098 487.971, 453.350 492.086, 451.051 500.750 C 449.446 506.797, 451.048 511.907, 455.932 516.319 C 462.072 521.867, 472.980 522.609, 479.335 517.910 C 481.695 516.166, 482.399 516.021, 483.103 517.133 C 483.580 517.885, 483.976 518.837, 483.985 519.250 C 483.993 519.663, 486.973 520, 490.607 520 C 496.539 520, 497.132 519.821, 496.411 518.250 C 495.969 517.288, 495.349 507.725, 495.033 497 C 494.569 481.271, 494.126 476.887, 492.744 474.329 C 488.243 466, 474.834 462.620, 463.639 466.992 M 520.648 465.967 C 510.033 469.371, 504.933 479.168, 509.339 487.689 C 511.534 491.934, 515.868 494.380, 526.469 497.358 C 535.580 499.918, 538 501.634, 538 505.536 C 538 513.306, 521.606 513.715, 518.701 506.017 C 517.614 503.140, 517.293 503, 511.781 503 C 506.451 503, 506 503.176, 506.004 505.250 C 506.013 510.524, 512.918 517.604, 520.391 520 C 526.125 521.839, 536.778 520.815, 541.908 517.932 C 548.002 514.507, 550.347 510.198, 549.788 503.455 C 549.094 495.083, 545.385 492.118, 530.535 488.063 C 526.154 486.867, 521.992 485.408, 521.285 484.822 C 519.350 483.216, 519.741 478.544, 521.979 476.519 C 526.079 472.809, 537 475.357, 537 480.023 C 537 481.793, 537.692 482, 543.625 482 L 550.250 482 549.633 478.916 C 548.056 471.028, 540.628 465.906, 530 465.376 C 526.425 465.198, 522.217 465.464, 520.648 465.967 M 575.910 466.371 C 566.284 469.812, 560.344 478.511, 559.326 490.656 C 558.278 503.152, 563.098 513.367, 572.347 518.252 C 578.430 521.465, 590.655 521.408, 597.302 518.136 C 599.943 516.835, 602.828 514.666, 603.713 513.316 C 605.259 510.956, 605.199 510.738, 602.190 507.728 L 599.058 504.597 596.779 506.732 C 589.720 513.345, 577.622 511.971, 573.549 504.094 C 572.697 502.447, 572 500.177, 572 499.050 C 572 497.061, 572.524 497, 589.638 497 L 607.276 497 606.594 490.250 C 605.566 480.084, 603.987 475.947, 599.371 471.325 C 593.332 465.276, 584.305 463.370, 575.910 466.371 M 277 493 L 277 520 283 520 L 289 520 289 493 L 289 466 283 466 L 277 466 277 493 M 356.269 476.212 C 354.158 477.231, 350 484.263, 350 486.816 C 350 487.656, 353.192 488, 361 488 L 372 488 372 485.547 C 372 477.581, 363.673 472.639, 356.269 476.212 M 412.378 476.389 C 406.895 478.859, 406 481.219, 406 493.207 C 406 503.541, 406.109 504.090, 408.750 507.019 C 414.303 513.179, 423.388 511.961, 426.962 504.579 C 429.394 499.554, 429.760 487.732, 427.638 482.718 C 424.894 476.235, 418.556 473.606, 412.378 476.389 M 578.269 476.212 C 576.158 477.231, 572 484.263, 572 486.816 C 572 487.656, 575.192 488, 583 488 L 594 488 594 485.547 C 594 477.581, 585.673 472.639, 578.269 476.212 M 469 495.706 C 462.974 497.909, 461.112 504.878, 465.458 508.960 C 467.517 510.895, 468.663 511.185, 472.520 510.751 C 479.339 509.982, 482 507.055, 482 500.326 L 482 495 476.250 495.079 C 473.087 495.122, 469.825 495.405, 469 495.706" stroke="none" fill="#fbfbfb" fill-rule="evenodd"/></svg>