<svg xmlns="http://www.w3.org/2000/svg" width="3840" height="2160" viewBox="0 0 3840 2160" version="1.1"><path d="M 1862 23.110 C 1722.930 30.614, 1632.632 67.308, 1603.009 128.358 C 1597.110 140.515, 1594.049 151.801, 1593.733 162.558 C 1593.605 166.926, 1593.612 205.488, 1593.750 248.250 L 1594 326 1758.500 326 L 1923 326 1923 349.484 L 1923 372.969 1676.750 373.274 L 1430.500 373.579 1420.558 375.771 C 1358.888 389.373, 1313.600 425.621, 1283.205 485.707 C 1256.472 538.555, 1243.672 601.945, 1242.560 687 C 1240.782 822.915, 1269.068 924.272, 1324.703 981.351 C 1348.596 1005.863, 1374.708 1021.105, 1405.986 1028.797 L 1416.500 1031.382 1483.206 1031.743 L 1549.913 1032.104 1550.249 939.302 C 1550.575 849.237, 1550.649 846.146, 1552.753 834.500 C 1557.386 808.859, 1562.822 792.089, 1573.497 770.500 C 1582.536 752.219, 1592.535 738.551, 1607.199 724.428 C 1634.031 698.589, 1669.377 683.351, 1712.500 679.033 C 1719.942 678.288, 1781.553 677.846, 1903 677.666 C 2099.779 677.374, 2086.469 677.766, 2114.687 671.437 C 2130.079 667.985, 2143.818 663.160, 2159 655.876 C 2209.015 631.878, 2237.893 592.181, 2247.660 534 C 2249.286 524.314, 2249.448 510.319, 2249.747 353.500 C 2249.960 241.579, 2249.723 181.253, 2249.053 176.923 C 2243.092 138.388, 2218.984 104.001, 2180 78.425 C 2131.759 46.777, 2062.135 28.528, 1969 23.120 C 1950.305 22.034, 1882.057 22.028, 1862 23.110 M 1719.679 128.026 C 1711.105 130.547, 1707.019 132.631, 1699.358 138.390 C 1692.572 143.491, 1686.485 150.851, 1682.538 158.726 C 1671.615 180.520, 1675.138 206.657, 1691.425 224.653 C 1711.145 246.445, 1743.246 250.715, 1767.767 234.808 C 1787.861 221.773, 1798.428 196.914, 1793.614 174 C 1789.212 153.052, 1774.667 136.262, 1754.881 129.290 C 1744.668 125.692, 1729.472 125.146, 1719.679 128.026 M 1939 1445.108 C 1934.325 1446.634, 1922.513 1450.407, 1912.750 1453.492 L 1895 1459.102 1895 1706.051 L 1895 1953 1921.496 1953 L 1947.992 1953 1948.246 1829.250 L 1948.500 1705.500 1960 1697.774 C 1981.266 1683.487, 2005.840 1672.179, 2023.592 1668.513 C 2033.390 1666.489, 2047.654 1666.471, 2055.280 1668.473 C 2076.283 1673.986, 2091.588 1691.619, 2099.135 1719 L 2101.478 1727.500 2101.764 1840.250 L 2102.050 1953 2129.025 1953 L 2156 1953 2155.992 1839.250 C 2155.987 1768.423, 2155.598 1722.138, 2154.963 1716.591 C 2152.048 1691.149, 2142.158 1670.837, 2124.673 1654.382 C 2107.708 1638.415, 2090.041 1631.339, 2064.440 1630.255 C 2045.414 1629.450, 2022.324 1632.748, 2003 1639.031 C 1990.866 1642.977, 1967.812 1654.204, 1957.044 1661.411 C 1952.451 1664.485, 1948.540 1667, 1948.351 1667 C 1948.163 1667, 1947.894 1616.450, 1947.754 1554.667 L 1947.500 1442.333 1939 1445.108 M 2888 1521.666 L 2888 1524.932 2898.750 1525.216 L 2909.500 1525.500 2909.765 1554.750 L 2910.030 1584 2914.500 1584 L 2918.970 1584 2919.235 1554.750 L 2919.500 1525.500 2930.500 1525 L 2941.500 1524.500 2941.500 1521.500 L 2941.500 1518.500 2914.750 1518.449 L 2888 1518.399 2888 1521.666 M 2950.531 1518.802 C 2950.239 1519.094, 2950 1533.883, 2950 1551.667 L 2950 1584 2954 1584 L 2958 1584 2958.079 1557.750 L 2958.158 1531.500 2960.015 1537 C 2961.036 1540.025, 2964.902 1551.859, 2968.606 1563.298 L 2975.341 1584.096 2979.920 1583.798 L 2984.500 1583.500 2993.176 1558 L 3001.853 1532.500 3001.926 1558.250 L 3002 1584 3006.514 1584 L 3011.027 1584 3010.764 1551.250 L 3010.500 1518.500 3005.082 1518.500 L 2999.664 1518.500 2990.055 1545.694 C 2984.770 1560.651, 2980.201 1573.132, 2979.902 1573.431 C 2979.603 1573.730, 2975.845 1562.168, 2971.550 1547.737 C 2967.255 1533.307, 2963.381 1520.825, 2962.941 1520 C 2962.391 1518.968, 2960.414 1518.464, 2956.602 1518.386 C 2953.555 1518.323, 2950.823 1518.510, 2950.531 1518.802 M 1744 1533.381 L 1718.500 1542.587 1718.240 1587.271 L 1717.979 1631.955 1699.740 1632.227 L 1681.500 1632.500 1681.443 1648 C 1681.411 1656.525, 1681.572 1664.063, 1681.800 1664.750 C 1682.111 1665.688, 1686.674 1666, 1700.074 1666 L 1717.935 1666 1718.280 1778.750 C 1718.670 1906.012, 1718.159 1897.693, 1726.664 1914.997 C 1735.270 1932.506, 1752.627 1946.579, 1773.458 1952.939 C 1786.869 1957.034, 1801.138 1958.490, 1824.250 1958.123 L 1832 1958 1832 1944.080 L 1832 1930.159 1825.250 1929.486 C 1793.109 1926.279, 1778.779 1916.280, 1773.407 1893.314 C 1772 1887.297, 1771.816 1873.862, 1771.838 1778.500 C 1771.852 1719.100, 1771.894 1669.487, 1771.932 1668.250 L 1772 1666 1802 1666 L 1832 1666 1832 1649.015 L 1832 1632.029 1801.855 1631.765 L 1771.710 1631.500 1771.750 1577.750 C 1771.780 1537.960, 1771.493 1524.023, 1770.645 1524.088 C 1770.015 1524.136, 1758.025 1528.318, 1744 1533.381 M 1151 1624.602 C 1149.075 1624.810, 1142.550 1625.478, 1136.500 1626.086 C 1092.203 1630.539, 1050.978 1647.531, 1025.962 1671.645 L 1016.995 1680.290 1017.248 1891.328 L 1017.500 2102.367 1043.500 2111.674 C 1057.800 2116.792, 1069.838 2120.985, 1070.250 2120.990 C 1070.662 2120.996, 1071 2078.475, 1071 2026.500 C 1071 1974.525, 1071.218 1932, 1071.485 1932 C 1071.752 1932, 1074.170 1933.354, 1076.860 1935.009 C 1085.373 1940.247, 1106.147 1949.687, 1116 1952.795 C 1135.395 1958.912, 1149.996 1961.040, 1168.500 1960.446 C 1207.536 1959.192, 1238.169 1943.690, 1260.836 1913.720 C 1284.672 1882.203, 1295.267 1846.440, 1295.266 1797.500 C 1295.265 1752.185, 1287.221 1716.926, 1269.772 1685.753 C 1250.699 1651.678, 1223.956 1631.870, 1189.901 1626.596 C 1180.266 1625.104, 1157.259 1623.924, 1151 1624.602 M 1380.223 1633.377 L 1353.946 1642.348 1354.242 1762.424 L 1354.537 1882.500 1356.759 1889.464 C 1361.965 1905.780, 1369.649 1917.859, 1382.236 1929.512 C 1396.411 1942.636, 1412.029 1951.241, 1430.567 1956.139 C 1438.646 1958.274, 1441.556 1958.498, 1461 1958.480 C 1473.183 1958.468, 1486.617 1957.889, 1492 1957.143 C 1514.841 1953.976, 1539.068 1947.637, 1559.650 1939.440 C 1565.783 1936.998, 1571.134 1935, 1571.541 1935 C 1571.948 1935, 1572.018 1946.813, 1571.697 1961.250 C 1570.461 2016.788, 1564.021 2036.875, 1541.812 2054.461 C 1522.109 2070.063, 1497.675 2077.972, 1447.250 2085.069 C 1442.713 2085.708, 1439.016 2086.516, 1439.035 2086.865 C 1439.055 2087.214, 1440.980 2094.700, 1443.313 2103.500 L 1447.556 2119.500 1455.528 2119.246 C 1479.934 2118.470, 1510.382 2112.149, 1534.011 2102.953 C 1571.947 2088.190, 1597.985 2065.832, 1608.505 2038.988 C 1612.089 2029.843, 1616.699 2010.406, 1618.465 1997 C 1622.176 1968.815, 1622.292 1963.348, 1622.706 1796.750 L 1623.116 1632 1596.058 1632 L 1569 1632 1568.983 1763.250 L 1568.967 1894.500 1560.233 1899.669 C 1537.321 1913.230, 1518.687 1919.922, 1497.736 1922.116 C 1471.251 1924.889, 1445.354 1917.435, 1429.059 1902.349 C 1418.531 1892.601, 1412.389 1881.923, 1408.752 1867.045 C 1407.986 1863.912, 1407.464 1825.515, 1407.070 1743.453 L 1406.500 1624.406 1380.223 1633.377 M 2336.500 1624.668 C 2302.162 1628.887, 2278.017 1639.710, 2255.815 1660.839 C 2220.214 1694.718, 2203.251 1740.145, 2205.343 1796 C 2207.333 1849.138, 2223.491 1890.491, 2254.433 1921.641 C 2273.688 1941.024, 2292.634 1951.242, 2320.312 1957.169 C 2335.072 1960.330, 2366.884 1960.339, 2381.604 1957.186 C 2414.909 1950.052, 2440.350 1934.353, 2460.502 1908.500 C 2484.632 1877.543, 2496.722 1841.835, 2498.590 1796 C 2500.761 1742.742, 2484.571 1697.472, 2451.546 1664.457 C 2428.308 1641.226, 2401.876 1628.641, 2368.789 1625.053 C 2359.606 1624.057, 2343.077 1623.860, 2336.500 1624.668 M 2677.761 1625.016 C 2655.764 1627.539, 2629.436 1633.643, 2613.115 1640.003 C 2595.091 1647.027, 2574.967 1658.133, 2554.228 1672.500 L 2547.010 1677.500 2547.005 1815.266 L 2547 1953.033 2573.515 1952.766 L 2600.030 1952.500 2600.008 1818.931 L 2599.986 1685.362 2602.334 1683.155 C 2606.076 1679.641, 2623.680 1670.308, 2632.978 1666.910 C 2647.286 1661.681, 2658.640 1659.720, 2675 1659.654 C 2686.784 1659.607, 2691.170 1660.012, 2698.418 1661.819 C 2721.366 1667.540, 2738.997 1682.499, 2746.625 1702.720 C 2752.089 1717.207, 2752 1714.951, 2752 1838.588 L 2752 1953 2779.029 1953 L 2806.058 1953 2805.762 1824.250 C 2805.487 1705.025, 2805.336 1695.056, 2803.713 1689.500 C 2794.003 1656.266, 2766.181 1633.892, 2725.374 1626.504 C 2714.803 1624.590, 2688.609 1623.771, 2677.761 1625.016 M 1130.500 1661.544 C 1111.374 1664.745, 1086.102 1674.072, 1075.250 1681.933 L 1071 1685.013 1071 1789.974 L 1071 1894.935 1080.492 1900.521 C 1096.992 1910.232, 1115.128 1917.423, 1132.500 1921.144 C 1142.059 1923.191, 1161.990 1922.682, 1171.500 1920.147 C 1184.864 1916.585, 1193.342 1911.707, 1203 1902.023 C 1215.276 1889.714, 1221.790 1877.388, 1227.505 1855.656 C 1232.451 1836.851, 1233.490 1825.918, 1233.459 1793 C 1233.429 1760.013, 1232.376 1748.788, 1227.366 1728 C 1219.996 1697.425, 1205.875 1676.249, 1186.774 1667.131 C 1182.223 1664.958, 1175.261 1662.465, 1171.303 1661.590 C 1162.505 1659.646, 1141.977 1659.623, 1130.500 1661.544 M 2336.500 1662.460 C 2285.728 1671.744, 2261.004 1716.648, 2263.309 1795.389 C 2263.941 1816.955, 2265.565 1830.456, 2269.483 1846.717 C 2275.896 1873.328, 2289.084 1897.377, 2304.183 1909.993 C 2311.884 1916.428, 2324.516 1922.621, 2334 1924.612 C 2344.507 1926.818, 2365.670 1926.022, 2375.984 1923.033 C 2419.898 1910.304, 2441.362 1863.140, 2439.713 1783 C 2439.074 1751.950, 2436.086 1735.792, 2427.170 1715.174 C 2419.325 1697.034, 2405.562 1680.334, 2391.689 1672.123 C 2375.662 1662.637, 2355.163 1659.048, 2336.500 1662.460" stroke="none" fill="#3474a4" fill-rule="evenodd"/><path d="M 2352.750 363.758 L 2294 364.016 2293.964 448.758 C 2293.944 495.366, 2293.696 536.200, 2293.414 539.500 C 2287.633 606.920, 2260.249 658.950, 2214.909 688.657 C 2190.829 704.434, 2162.656 713.588, 2128 716.896 C 2122.775 717.395, 2039.492 717.850, 1942.926 717.907 C 1791.653 717.997, 1765.638 718.223, 1754.966 719.544 C 1708.193 725.335, 1667.452 743.593, 1640.036 771.051 C 1614.091 797.036, 1599.736 829.086, 1595.044 871.500 C 1594.427 877.081, 1594.016 944.136, 1593.962 1048 C 1593.868 1229.720, 1593.596 1219.767, 1599.161 1237.785 C 1604.555 1255.250, 1616.209 1274.589, 1630.463 1289.732 C 1646.402 1306.664, 1665.666 1320.386, 1690.419 1332.442 C 1733.316 1353.334, 1783.777 1365.365, 1854.828 1371.640 C 1875.582 1373.473, 1959.181 1374.346, 1982 1372.968 C 2064.817 1367.967, 2125.170 1354.938, 2170.378 1332.302 C 2212.114 1311.403, 2237.120 1285.267, 2247.684 1251.500 L 2250.500 1242.500 2250.343 1181 C 2250.256 1147.175, 2250.144 1108.138, 2250.093 1094.250 L 2250 1069 2085.500 1069 L 1921 1069 1921 1046.016 L 1921 1023.031 2167.250 1022.744 L 2413.500 1022.456 2425.569 1019.757 C 2462.833 1011.424, 2493.715 994.501, 2520 968.007 C 2565.115 922.534, 2590.673 855.486, 2599.672 759 C 2601.810 736.069, 2602.117 664.767, 2600.177 641.500 C 2595.355 583.664, 2586.558 539.429, 2572.334 501.500 C 2562.302 474.748, 2545.178 444.025, 2530.470 426.393 C 2502.679 393.074, 2467.814 371.779, 2431 365.638 C 2417.892 363.452, 2418.598 363.469, 2352.750 363.758 M 2100.656 1152.197 C 2088.075 1153.695, 2073.909 1160.914, 2065.490 1170.118 C 2047.071 1190.255, 2044.391 1220.399, 2059.035 1242.718 C 2066.984 1254.833, 2081.213 1264.865, 2095 1268.074 C 2102.187 1269.746, 2115.081 1269.759, 2122 1268.100 C 2136.089 1264.722, 2149.942 1254.945, 2157.965 1242.718 C 2169.714 1224.811, 2170.468 1200.005, 2159.831 1181.251 C 2151.353 1166.301, 2133.881 1154.330, 2117.835 1152.475 C 2108.384 1151.382, 2107.604 1151.370, 2100.656 1152.197" stroke="none" fill="#fcd444" fill-rule="evenodd"/></svg>