<svg xmlns="http://www.w3.org/2000/svg" width="512" height="512" viewBox="0 0 512 512" version="1.1"><path d="M 61.500 18.377 C 55.542 21.187, 52.826 23.952, 50.084 30 C 48.068 34.448, 48.044 35.883, 48.022 153.250 L 48 272 32 272 L 16 272 16.010 294.750 C 16.019 316.560, 16.117 317.707, 18.377 322.500 C 21.187 328.458, 23.952 331.174, 30 333.916 C 34.442 335.930, 35.935 335.956, 145.250 335.978 L 256 336 256 328 L 256 320 146.455 320 L 36.909 320 34.455 317.545 C 32.090 315.181, 32 314.594, 32 301.545 L 32 288 132 288 L 232 288 232 284 L 232 280 240.377 280 L 248.754 280 248.274 284.260 C 247.643 289.858, 249.305 295.741, 252.933 300.749 C 255.278 303.986, 258.407 306.089, 268.414 311.153 L 280.956 317.500 283.067 324.500 C 285.807 333.587, 289.928 340.729, 296.574 347.906 C 299.522 351.091, 302.399 354.919, 302.967 356.413 C 303.535 357.907, 304 363.292, 304 368.379 L 304 377.629 276.250 385.912 C 259.298 390.973, 245.776 395.613, 241.500 397.838 C 232.535 402.502, 222.593 412.355, 218.262 420.868 C 215.900 425.512, 213.873 427.968, 210.762 429.954 C 204.715 433.816, 198.263 441.206, 195.160 447.825 C 192.583 453.324, 192.490 454.161, 192.179 474.750 L 191.858 496 199.929 496 L 208 496 208.010 477.750 C 208.019 460.744, 208.178 459.159, 210.351 454.493 C 213.112 448.565, 218.126 443.876, 224.145 441.595 C 228.118 440.090, 238.767 439.969, 345.500 440.222 L 462.500 440.500 466.500 442.658 C 471.180 445.184, 475.027 449.101, 477.636 454 C 479.229 456.992, 479.547 460.296, 479.826 476.750 L 480.153 496 488.148 496 L 496.142 496 495.821 474.750 C 495.510 454.161, 495.417 453.324, 492.840 447.825 C 489.737 441.206, 483.285 433.816, 477.238 429.954 C 474.127 427.968, 472.100 425.512, 469.738 420.868 C 465.407 412.355, 455.465 402.502, 446.500 397.838 C 442.224 395.613, 428.702 390.973, 411.750 385.912 L 384 377.629 384 368.379 C 384 363.292, 384.465 357.907, 385.033 356.413 C 385.601 354.919, 388.478 351.091, 391.426 347.906 C 397.920 340.892, 402.111 333.769, 405.092 324.676 L 407.330 317.851 418.179 312.410 C 435.867 303.540, 440.706 297.434, 439.814 285.112 C 438.868 272.028, 429.578 264, 415.386 264 L 408 264 408 257.684 C 408 235.872, 396.111 215.697, 377.883 206.578 C 366.896 201.081, 358.535 199.680, 340.173 200.258 C 323.530 200.782, 317.134 202.219, 308.666 207.335 L 304.833 209.652 284.416 205.600 L 264 201.548 264 198.242 C 264 192.509, 266.715 188.079, 275.383 179.667 C 288.546 166.893, 288 170.216, 288 102.843 L 288 47.896 247.195 48.198 L 206.391 48.500 198.837 52.235 C 189.738 56.733, 184.068 62.526, 179.665 71.820 L 176.500 78.500 176.196 117.893 C 175.904 155.776, 175.974 157.558, 178.038 164.393 C 180.027 170.977, 180.805 172.101, 188.609 179.667 C 197.274 188.068, 200 192.507, 200 198.219 L 200 201.502 169.021 207.724 C 122.747 217.016, 122.142 217.455, 107.021 252.750 L 98.774 272 81.387 272 L 64 272 64 154.455 L 64 36.909 66.455 34.455 L 68.909 32 232 32 L 395.091 32 397.545 34.455 C 399.561 36.470, 400 37.900, 400 42.455 L 400 48 369.750 48.022 C 341.483 48.042, 339.205 48.177, 335 50.081 C 328.957 52.816, 325.224 56.491, 322.383 62.500 C 320.050 67.437, 320.019 67.914, 320.010 100.110 C 319.999 137.206, 321.229 131.492, 309.934 146.924 C 304.872 153.841, 304.500 154.735, 304.500 160.002 C 304.500 164.600, 305.003 166.315, 307.194 169.187 C 312.427 176.049, 312.059 176, 358.401 176 L 400 176 400 192 L 400 208 408 208 L 416 208 416 192 L 416 176 446.532 176 C 479.539 176, 480.562 175.860, 487.804 170.336 C 489.680 168.905, 492.287 165.431, 493.598 162.617 L 495.980 157.500 495.968 112 C 495.957 68.353, 495.873 66.317, 493.916 62 C 491.174 55.952, 488.458 53.187, 482.500 50.377 C 477.587 48.061, 476.965 48.019, 446.750 48.010 L 416 48 415.978 41.250 C 415.942 30.029, 411.606 22.672, 402.500 18.377 L 397.500 16.020 232 16.020 L 66.500 16.020 61.500 18.377 M 88 72 L 88 80 96 80 L 104 80 104 72 L 104 64 96 64 L 88 64 88 72 M 209.994 64.934 C 203.113 67.027, 197.721 71.545, 194.505 77.912 C 192.612 81.659, 191.193 92.984, 192.611 93.027 C 193.100 93.041, 211.162 88.660, 232.750 83.289 L 272 73.526 272 68.763 L 272 64 242.250 64.086 C 225.887 64.133, 211.372 64.515, 209.994 64.934 M 231.750 100.312 L 192 110.245 192.022 133.872 C 192.048 161.590, 192.362 162.825, 201.229 170.009 C 210.881 177.830, 216 188.037, 216 199.460 C 216 204.388, 216.209 204.765, 222.277 210.779 C 227.573 216.028, 229.101 217, 232.056 217 C 235.026 217, 236.503 216.046, 241.779 210.723 C 247.779 204.669, 248 204.264, 248 199.328 C 248 196.514, 248.950 191.126, 250.112 187.355 C 252.046 181.076, 252.964 179.774, 261.036 171.868 C 267.384 165.651, 270.163 162.154, 270.972 159.368 C 271.729 156.759, 271.998 144.905, 271.797 122.940 L 271.500 90.380 231.750 100.312 M 88 112 L 88 120 96 120 L 104 120 104 112 L 104 104 96 104 L 88 104 88 112 M 208 128 L 208 136 216 136 L 224 136 224 128 L 224 120 216 120 L 208 120 208 128 M 240 128 L 240 136 248 136 L 256 136 256 128 L 256 120 248 120 L 240 120 240 128 M 88 152 L 88 160 96 160 L 104 160 104 152 L 104 144 96 144 L 88 144 88 152 M 216.225 159.498 C 214.451 163.095, 213 166.418, 213 166.882 C 213 168.645, 224.604 171.412, 232 171.412 C 239.396 171.412, 251 168.645, 251 166.882 C 251 166.418, 249.549 163.095, 247.775 159.498 C 245.418 154.718, 244.140 153.116, 243.027 153.543 C 236.207 156.160, 227.793 156.160, 220.973 153.543 C 219.860 153.116, 218.582 154.718, 216.225 159.498 M 326.251 217.492 C 318.449 219.672, 313.276 222.629, 307.952 227.952 C 302.465 233.440, 299.614 238.546, 297.495 246.680 C 295.667 253.698, 295.357 304.112, 297.084 313.566 C 298.668 322.239, 303.189 330.903, 310.121 338.552 C 318.849 348.184, 319.951 351.113, 319.978 364.750 L 320 376 344 376 L 368 376 368.022 364.750 C 368.049 351.070, 369.300 347.754, 378.026 338.230 C 385.096 330.515, 389.404 322.117, 390.998 312.942 C 391.736 308.697, 392.019 296.005, 391.801 276.942 C 391.486 249.413, 391.322 247.151, 389.280 242.122 C 384.726 230.911, 376.955 223.075, 366.252 218.903 C 361.433 217.024, 358.148 216.609, 346 216.343 C 335.477 216.113, 330.060 216.428, 326.251 217.492 M 266.073 282.635 C 262.079 287.712, 263.779 290.856, 273.039 295.520 L 280 299.025 280 289.513 L 280 280 274.073 280 C 268.860 280, 267.895 280.318, 266.073 282.635 M 408 289.501 L 408 299.098 415.243 295.299 C 423.894 290.762, 425.679 287.731, 422.341 283.248 C 420.555 280.848, 419.516 280.462, 414.148 280.202 L 408 279.905 408 289.501 M 29.500 354.377 C 23.542 357.187, 20.826 359.952, 18.084 366 C 16.112 370.350, 16.044 372.287, 16.044 424 C 16.044 475.713, 16.112 477.650, 18.084 482 C 20.826 488.048, 23.542 490.813, 29.500 493.623 L 34.500 495.980 95.782 495.990 C 162.424 496.001, 160.142 496.180, 167.804 490.336 C 169.680 488.905, 172.287 485.431, 173.598 482.617 C 175.940 477.588, 175.981 476.978, 176.035 447 C 176.074 425.506, 176.446 415.688, 177.295 413.750 C 178.140 411.822, 185.508 406.294, 201.953 395.250 C 214.852 386.588, 226.327 378.230, 227.453 376.677 C 228.961 374.597, 229.500 372.313, 229.500 368 C 229.500 361.440, 227.688 358.115, 222.010 354.250 L 218.704 352 126.602 352.010 L 34.500 352.020 29.500 354.377 M 37.020 369.284 C 31.990 371.829, 31.982 371.921, 32.250 425.223 L 32.500 474.946 34.777 477.223 L 37.054 479.500 84.781 479.778 L 132.509 480.055 140.004 475.130 C 144.127 472.421, 150.313 467.272, 153.750 463.689 L 160 457.173 160 434.054 C 160 408.903, 160.447 406.328, 165.803 400.631 C 167.286 399.054, 177.950 391.460, 189.500 383.757 C 201.050 376.053, 210.927 369.357, 211.450 368.875 C 211.994 368.374, 175.435 368.006, 125.950 368.015 C 58.616 368.026, 38.952 368.307, 37.020 369.284 M 48 392 L 48 400 96 400 L 144 400 144 392 L 144 384 96 384 L 48 384 48 392 M 282.912 401.369 C 266.088 406.457, 250.338 411.794, 247.912 413.228 C 245.485 414.662, 241.721 417.673, 239.547 419.918 L 235.594 424 316.067 424 L 396.540 424 405.968 414.532 C 411.154 409.324, 415.195 404.873, 414.949 404.640 C 414.702 404.407, 405.311 401.468, 394.079 398.108 L 373.658 392 343.579 392.058 L 313.500 392.117 282.912 401.369 M 48 424 L 48 432 96 432 L 144 432 144 424 L 144 416 96 416 L 48 416 48 424 M 48 456 L 48 464 80 464 L 112 464 112 456 L 112 448 80 448 L 48 448 48 456" stroke="none" fill="#040607" fill-rule="evenodd"/><path d="M 66.455 34.455 L 64 36.909 64 154.455 L 64 272 81.387 272 L 98.774 272 107.021 252.750 C 115.748 232.381, 118.677 227.247, 124.478 222.153 C 131.684 215.827, 136.598 214.235, 169.021 207.724 L 200 201.502 200 198.219 C 200 192.507, 197.274 188.068, 188.609 179.667 C 180.805 172.101, 180.027 170.977, 178.038 164.393 C 175.974 157.558, 175.904 155.776, 176.196 117.893 L 176.500 78.500 179.665 71.820 C 184.068 62.526, 189.738 56.733, 198.837 52.235 L 206.391 48.500 247.195 48.198 L 288 47.896 288 102.843 C 288 170.216, 288.546 166.893, 275.383 179.667 C 266.715 188.079, 264 192.509, 264 198.242 L 264 201.548 284.416 205.600 L 304.833 209.652 308.666 207.335 C 317.134 202.219, 323.530 200.782, 340.173 200.258 C 358.535 199.680, 366.896 201.081, 377.883 206.578 C 391.538 213.409, 404.081 229.837, 406.837 244.500 C 407.565 248.375, 407.801 244.830, 407.888 228.750 L 408 208 404 208 L 400 208 400 192 L 400 176 358.401 176 C 312.059 176, 312.427 176.049, 307.194 169.187 C 305.003 166.315, 304.500 164.600, 304.500 160.002 C 304.500 154.735, 304.872 153.841, 309.934 146.924 C 321.229 131.492, 319.999 137.206, 320.010 100.110 C 320.019 67.914, 320.050 67.437, 322.383 62.500 C 325.224 56.491, 328.957 52.816, 335 50.081 C 339.205 48.177, 341.483 48.042, 369.750 48.022 L 400 48 400 42.455 C 400 37.900, 399.561 36.470, 397.545 34.455 L 395.091 32 232 32 L 68.909 32 66.455 34.455 M 88 72 L 88 80 96 80 L 104 80 104 72 L 104 64 96 64 L 88 64 88 72 M 209.994 64.934 C 203.113 67.027, 197.721 71.545, 194.505 77.912 C 192.612 81.659, 191.193 92.984, 192.611 93.027 C 193.100 93.041, 211.162 88.660, 232.750 83.289 L 272 73.526 272 68.763 L 272 64 242.250 64.086 C 225.887 64.133, 211.372 64.515, 209.994 64.934 M 231.750 100.312 L 192 110.245 192.022 133.872 C 192.048 161.590, 192.362 162.825, 201.229 170.009 C 210.881 177.830, 216 188.037, 216 199.460 C 216 204.388, 216.209 204.765, 222.277 210.779 C 227.573 216.028, 229.101 217, 232.056 217 C 235.026 217, 236.503 216.046, 241.779 210.723 C 247.779 204.669, 248 204.264, 248 199.328 C 248 196.514, 248.950 191.126, 250.112 187.355 C 252.046 181.076, 252.964 179.774, 261.036 171.868 C 267.384 165.651, 270.163 162.154, 270.972 159.368 C 271.729 156.759, 271.998 144.905, 271.797 122.940 L 271.500 90.380 231.750 100.312 M 88 112 L 88 120 96 120 L 104 120 104 112 L 104 104 96 104 L 88 104 88 112 M 208 128 L 208 136 216 136 L 224 136 224 128 L 224 120 216 120 L 208 120 208 128 M 240 128 L 240 136 248 136 L 256 136 256 128 L 256 120 248 120 L 240 120 240 128 M 88 152 L 88 160 96 160 L 104 160 104 152 L 104 144 96 144 L 88 144 88 152 M 216.225 159.498 C 214.451 163.095, 213 166.418, 213 166.882 C 213 168.645, 224.604 171.412, 232 171.412 C 239.396 171.412, 251 168.645, 251 166.882 C 251 166.418, 249.549 163.095, 247.775 159.498 C 245.418 154.718, 244.140 153.116, 243.027 153.543 C 236.207 156.160, 227.793 156.160, 220.973 153.543 C 219.860 153.116, 218.582 154.718, 216.225 159.498 M 326.251 217.492 C 318.449 219.672, 313.276 222.629, 307.952 227.952 C 302.465 233.440, 299.614 238.546, 297.495 246.680 C 295.667 253.698, 295.357 304.112, 297.084 313.566 C 298.668 322.239, 303.189 330.903, 310.121 338.552 C 318.849 348.184, 319.951 351.113, 319.978 364.750 L 320 376 344 376 L 368 376 368.022 364.750 C 368.049 351.070, 369.300 347.754, 378.026 338.230 C 385.096 330.515, 389.404 322.117, 390.998 312.942 C 391.736 308.697, 392.019 296.005, 391.801 276.942 C 391.486 249.413, 391.322 247.151, 389.280 242.122 C 384.726 230.911, 376.955 223.075, 366.252 218.903 C 361.433 217.024, 358.148 216.609, 346 216.343 C 335.477 216.113, 330.060 216.428, 326.251 217.492 M 232 284 L 232 288 132 288 L 32 288 32 301.545 C 32 314.594, 32.090 315.181, 34.455 317.545 L 36.909 320 146.455 320 L 256 320 256 324 L 256 328 270.107 328 C 281.963 328, 284.126 327.771, 283.662 326.563 C 283.359 325.772, 282.644 323.409, 282.074 321.313 C 281.090 317.689, 280.414 317.185, 268.455 311.153 C 258.391 306.076, 255.284 303.994, 252.933 300.749 C 249.305 295.741, 247.643 289.858, 248.274 284.260 L 248.754 280 240.377 280 L 232 280 232 284 M 266.073 282.635 C 262.079 287.712, 263.779 290.856, 273.039 295.520 L 280 299.025 280 289.513 L 280 280 274.073 280 C 268.860 280, 267.895 280.318, 266.073 282.635 M 408 289.501 L 408 299.098 415.243 295.299 C 423.894 290.762, 425.679 287.731, 422.341 283.248 C 420.555 280.848, 419.516 280.462, 414.148 280.202 L 408 279.905 408 289.501 M 37.020 369.284 C 31.990 371.829, 31.982 371.921, 32.250 425.223 L 32.500 474.946 34.777 477.223 L 37.054 479.500 84.781 479.778 L 132.509 480.055 140.004 475.130 C 144.127 472.421, 150.313 467.272, 153.750 463.689 L 160 457.173 160 434.054 C 160 408.903, 160.447 406.328, 165.803 400.631 C 167.286 399.054, 177.950 391.460, 189.500 383.757 C 201.050 376.053, 210.927 369.357, 211.450 368.875 C 211.994 368.374, 175.435 368.006, 125.950 368.015 C 58.616 368.026, 38.952 368.307, 37.020 369.284 M 48 392 L 48 400 96 400 L 144 400 144 392 L 144 384 96 384 L 48 384 48 392 M 282.912 401.369 C 266.088 406.457, 250.338 411.794, 247.912 413.228 C 245.485 414.662, 241.721 417.673, 239.547 419.918 L 235.594 424 316.067 424 L 396.540 424 405.968 414.532 C 411.154 409.324, 415.195 404.873, 414.949 404.640 C 414.702 404.407, 405.311 401.468, 394.079 398.108 L 373.658 392 343.579 392.058 L 313.500 392.117 282.912 401.369 M 48 424 L 48 432 96 432 L 144 432 144 424 L 144 416 96 416 L 48 416 48 424 M 222.500 442.375 C 216.487 445.228, 212.814 448.961, 210.081 455 C 208.274 458.993, 208.041 461.558, 208.022 477.750 L 208 496 344.076 496 L 480.153 496 479.826 476.750 C 479.530 459.290, 479.299 457.128, 477.342 453.500 C 474.816 448.820, 470.899 444.973, 466 442.364 C 462.650 440.580, 457.463 440.489, 345 440.251 L 227.500 440.002 222.500 442.375 M 48 456 L 48 464 80 464 L 112 464 112 456 L 112 448 80 448 L 48 448 48 456" stroke="none" fill="#d0b9b9" fill-rule="evenodd"/></svg>